<?xml version="1.0" encoding="UTF-8" standalone="no"?>
<!-- Created with Inkscape (http://www.inkscape.org/) -->

<svg
   xmlns:dc="http://purl.org/dc/elements/1.1/"
   xmlns:cc="http://creativecommons.org/ns#"
   xmlns:rdf="http://www.w3.org/1999/02/22-rdf-syntax-ns#"
   xmlns:svg="http://www.w3.org/2000/svg"
   xmlns="http://www.w3.org/2000/svg"
   xmlns:xlink="http://www.w3.org/1999/xlink"
   xmlns:sodipodi="http://sodipodi.sourceforge.net/DTD/sodipodi-0.dtd"
   xmlns:inkscape="http://www.inkscape.org/namespaces/inkscape"
   width="500mm"
   height="500mm"
   viewBox="0 0 500 500"
   version="1.1"
   id="svg8"
   inkscape:version="0.92.2 (5c3e80d, 2017-08-06)"
   sodipodi:docname="logo.svg"
   inkscape:export-filename="F:\Proyectos\SSSIRSA\frontend2\frontend\src\assets\images\logo.png"
   inkscape:export-xdpi="6.0999999"
   inkscape:export-ydpi="6.0999999">
  <defs
     id="defs2">
    <linearGradient
       inkscape:collect="always"
       id="linearGradient4913">
      <stop
         style="stop-color:#2c2c2c;stop-opacity:1;"
         offset="0"
         id="stop4909" />
      <stop
         id="stop4917"
         offset="0.788656"
         style="stop-color:#696969;stop-opacity:1" />
      <stop
         style="stop-color:#dcdcdc;stop-opacity:1"
         offset="0.87251663"
         id="stop4923" />
      <stop
         style="stop-color:#b4b4b4;stop-opacity:1"
         offset="0.89425826"
         id="stop4919" />
      <stop
         id="stop4921"
         offset="0.91599989"
         style="stop-color:#dcdcdc;stop-opacity:1" />
      <stop
         style="stop-color:#a0a0a0;stop-opacity:1"
         offset="1"
         id="stop4911" />
    </linearGradient>
    <linearGradient
       inkscape:collect="always"
       id="linearGradient4825">
      <stop
         style="stop-color:#c4cfef;stop-opacity:1"
         offset="0"
         id="stop4821" />
      <stop
         style="stop-color:#4365cf;stop-opacity:1"
         offset="1"
         id="stop4823" />
    </linearGradient>
    <radialGradient
       inkscape:collect="always"
       xlink:href="#linearGradient4825"
       id="radialGradient4827"
       cx="108.59713"
       cy="245.93111"
       fx="108.59713"
       fy="245.93111"
       r="192.62788"
       gradientTransform="matrix(1.0285511,0,0,1.0345869,138.65608,-1.9739801)"
       gradientUnits="userSpaceOnUse" />
    <radialGradient
       inkscape:collect="always"
       xlink:href="#linearGradient4913"
       id="radialGradient4915"
       cx="248.77035"
       cy="247.0952"
       fx="248.77035"
       fy="247.0952"
       r="243.3886"
       gradientTransform="matrix(1.0285511,0,0,1.0308928,-5.4990455,-4.0294646)"
       gradientUnits="userSpaceOnUse" />
  </defs>
  <sodipodi:namedview
     id="base"
     pagecolor="#ffffff"
     bordercolor="#666666"
     borderopacity="1.0"
     inkscape:pageopacity="0.0"
     inkscape:pageshadow="2"
     inkscape:zoom="0.24748737"
     inkscape:cx="-1003.4324"
     inkscape:cy="819.6205"
     inkscape:document-units="px"
     inkscape:current-layer="layer3"
     showgrid="false"
     inkscape:window-width="1920"
     inkscape:window-height="1017"
     inkscape:window-x="-8"
     inkscape:window-y="-8"
     inkscape:window-maximized="1" />
  <metadata
     id="metadata5">
    <rdf:RDF>
      <cc:Work
         rdf:about="">
        <dc:format>image/svg+xml</dc:format>
        <dc:type
           rdf:resource="http://purl.org/dc/dcmitype/StillImage" />
        <dc:title />
      </cc:Work>
    </rdf:RDF>
  </metadata>
  <g
     inkscape:groupmode="layer"
     id="layer3"
     inkscape:label="BackGround"
     style="display:inline;opacity:1">
    <path
       style="fill:url(#radialGradient4827);fill-opacity:1;stroke:none;stroke-width:0.77899867;stroke-linecap:round;stroke-linejoin:round;stroke-miterlimit:100;stroke-dasharray:none;stroke-opacity:1"
       d="m 232.59699,451.33045 c -1.92439,-0.15592 -7.85205,-0.98225 -13.17253,-1.83633 -20.51814,-3.29363 -38.38472,-9.03242 -56.89534,-18.27491 -38.80249,-19.37438 -70.664365,-51.5121 -89.674057,-90.45047 -7.181795,-14.71076 -10.626506,-24.04919 -14.41219,-39.07067 -8.3131,-32.98616 -8.28933,-64.75899 0.07385,-98.77963 C 76.597879,129.36635 139.02673,70.408604 213.43141,56.617152 c 42.03002,-7.790574 84.09112,-2.314059 122.18902,15.909459 50.56014,24.184612 89.54366,70.360109 105.04741,124.427309 20.11463,70.14687 0.73684,145.56606 -50.56465,196.79975 -10.60407,10.59012 -18.07248,16.72893 -30.42847,25.01145 -26.00727,17.43333 -55.44381,28.20019 -87.41863,31.97475 -8.78426,1.03696 -30.21156,1.35604 -39.6591,0.59058 z"
       id="path4819"
       inkscape:connector-curvature="0" />
    <path
       style="display:inline;fill:url(#radialGradient4915);fill-opacity:1;stroke:none;stroke-width:86.78490448;stroke-linecap:round;stroke-linejoin:round;stroke-miterlimit:4;stroke-dasharray:none;stroke-opacity:1"
       d="M 229.93855,500.89769 C 174.04498,497.12294 120.90068,473.11572 78.035608,432.27758 26.581902,383.25688 0.03635979,321.38672 0.03635979,250.4833 0.03635979,79.625736 168.20605,-41.386645 330.18054,12.916528 c 64.74694,21.70689 115.70638,66.683019 145.95122,128.814562 16.2251,33.33101 22.83954,59.73377 24.3272,97.10661 2.92168,73.39676 -19.47239,133.73262 -68.61201,184.85999 -54.81149,57.02867 -121.72935,82.61482 -201.9084,77.2 z m 70.48891,-57.16453 C 337.19533,433.5378 379.1346,406.45761 401.96422,378.17099 434.25413,338.1627 448.7878,293.1424 446.18201,241.1998 444.27736,203.23407 434.33856,172.71253 414.13895,142.79742 345.18165,40.67335 204.26102,24.82389 115.48683,109.20776 74.331623,148.32765 54.258575,195.09024 54.258575,251.84639 c 0,55.00288 19.091378,101.53079 57.382435,139.84779 27.3852,27.40372 60.42371,45.64725 97.6931,53.94513 19.86108,4.42201 72.22351,3.32629 91.09335,-1.90615 z"
       id="path4906"
       inkscape:connector-curvature="0" />
  </g>
  <g
     inkscape:groupmode="layer"
     id="layer4"
     inkscape:label="Snowflake"
     style="display:inline"
     sodipodi:insensitive="true">
    <path
       id="path4817"
       style="display:inline;fill:#ffffff;fill-opacity:0.74509804;stroke:none;stroke-width:2.7264955;stroke-linecap:round;stroke-linejoin:round;stroke-miterlimit:100;stroke-dasharray:none;stroke-opacity:1"
       d="m 240.19678,286.2644 c -7.05438,-3.81777 -15.27535,-8.34526 -18.26886,-10.06104 l -5.44274,-3.11962 0.23846,-19.79173 c 0.16914,-14.03374 0.50845,-20.05211 1.16633,-20.68679 0.51029,-0.49229 8.86198,-5.12885 18.55927,-10.30348 l 17.63145,-9.4084 18.32957,10.20266 18.32956,10.20266 v 20.10803 c 0,19.99449 -0.0103,20.11447 -1.74947,21.24864 -1.9693,1.28394 -35.14917,18.55052 -35.64715,18.55052 -0.17619,0 -6.09207,-3.12365 -13.14642,-6.94145 z m 26.4826,-9.97485 13.03018,-6.77029 0.52278,-10.20483 c 0.28754,-5.61265 0.40759,-12.62926 0.26678,-15.59246 l -0.25603,-5.38764 -12.82934,-7.28536 c -7.05616,-4.00696 -13.12917,-7.28966 -13.49561,-7.29491 -0.36646,-0.005 -6.54421,3.16399 -13.72836,7.04278 l -13.06207,7.05233 -0.5173,7.97161 c -0.28453,4.38438 -0.40482,11.29039 -0.26731,15.34673 l 0.25002,7.37512 6.60905,3.82176 c 7.64002,4.41794 19.38883,10.69541 20.01734,10.69541 0.23633,0 6.29326,-3.04661 13.45987,-6.77025 z m -33.03219,32.38424 c -10.13007,-5.67788 -23.55208,-13.24539 -29.8267,-16.8167 l -11.40835,-6.49322 v -12.56752 c 0,-6.91209 0.16282,-21.86098 0.36181,-33.21969 l 0.3618,-20.65221 13.79558,-7.39506 c 24.59875,-13.1861 46.93495,-24.88011 47.5223,-24.88011 0.51891,0 31.34537,17.08305 52.04216,28.84014 l 8.24701,4.6848 -0.14976,28.35306 c -0.0824,15.59416 -0.28656,30.59063 -0.45378,33.32544 l -0.30401,4.97244 -13.29124,7.15026 c -22.99701,12.37164 -47.35701,25.11139 -47.9287,25.06569 -0.3024,-0.0243 -8.83803,-4.68945 -18.96812,-10.36732 z m 33.53701,-9.95365 c 8.09102,-4.22695 19.0366,-9.99319 24.32353,-12.81391 l 9.61258,-5.12862 0.35108,-5.75962 c 0.19311,-3.16781 0.34717,-15.09593 0.34235,-26.50694 l -0.008,-20.74734 -5.90161,-3.29028 c -3.24589,-1.80969 -14.06616,-7.80561 -24.04502,-13.32429 l -18.14344,-10.03399 -10.99601,5.71439 c -6.0478,3.14289 -17.05755,8.92996 -24.46615,12.86013 l -13.47009,7.14573 -0.33674,13.43317 c -0.18521,7.38822 -0.36891,19.26918 -0.4082,26.40211 l -0.0715,12.96901 6.73092,3.73486 c 3.70198,2.05418 14.52432,8.06453 24.04963,13.35628 9.52529,5.2918 17.41045,9.63337 17.5226,9.64802 0.11212,0.0144 6.82377,-3.4318 14.91479,-7.65871 z m 70.09132,-97.14563 5.43781,9.91339 -171.98193,95.04989 -5.43781,-9.91339 z m 3.48431,98.02798 -5.65975,9.78744 -169.79683,-98.92894 5.65974,-9.78744 z m -92.3935,-144.07998 h 11.27426 V 352.5898 h -11.27426 z"
       inkscape:connector-curvature="0" />
    <path
       id="path4846-4-6-1"
       style="display:inline;fill:none;stroke:#ffffff;stroke-width:10.90598202;stroke-linecap:round;stroke-linejoin:round;stroke-miterlimit:4;stroke-dasharray:none;stroke-opacity:0.74509804"
       d="m 380.54488,326.00263 1.36285,32.23546 -18.66122,0.53981 -0.15598,-28.84776 -23.34372,-12.47859 -0.99927,34.02726 -21.26643,-2.75053 0.47138,-27.58953 -17.74905,-9.72184 -10.94381,5.86101 m 91.28525,8.72471 28.34783,-15.20954 -9.02372,-16.40485 -24.82797,14.53054 -22.57274,-13.83414 28.68419,-18.16223 -13.17091,-16.98402 -23.42961,14.43317 -17.36353,-10.39966 -0.94925,-6.19087 m -199.78792,-77.38834 -28.347801,15.20957 9.023701,16.40484 24.82798,-14.53054 22.57273,13.83414 -28.6842,18.16224 13.17092,16.984 23.4296,-14.43316 17.36354,10.39965 0.32695,6.89382 m -53.68342,-68.92456 -1.36282,-32.23543 18.6612,-0.53981 0.15598,28.84775 23.34372,12.47859 0.99928,-34.02726 21.26641,2.75053 -0.47137,27.58953 17.74905,9.72183 10.9438,-5.86101 m -94.05521,132.73239 -27.800585,-16.19535 9.589735,-16.07805 24.30655,15.39321 23.04091,-13.0333 -28.03387,-19.15804 13.75461,-16.51127 22.9124,15.24679 17.71525,-9.78374 0.96838,-12.4128 m -56.45338,72.53255 -2.48513,32.16789 18.63098,1.19456 1.16097,-28.82464 23.76421,-11.6515 -0.18687,34.04153 21.34923,-2.00233 0.49016,-27.58919 18.0769,-9.09283 10.7329,6.24159 m 167.47819,-131.08655 2.48514,-32.1679 -18.63101,-1.19455 -1.16104,28.82467 -23.76433,11.65157 0.18694,-34.04155 -21.34933,2.00236 -0.49019,27.58922 -18.07692,9.09283 -10.68356,-6.75181 m 91.4843,-5.00484 27.8006,16.19535 -9.58978,16.07806 -24.3066,-15.39318 -23.04105,13.03336 28.03395,19.15799 -13.75471,16.51134 -22.91245,-15.24677 -17.71524,9.78377 -0.96838,12.41278 m -72.74106,142.26107 -27.21375,17.17022 -9.71921,-15.99953 24.88116,-14.43859 -0.77752,-26.5358 -29.93513,15.99953 -8.16412,-19.90184 24.1036,-13.26791 -0.38878,-20.29207 -11.06972,-6.44123 m 38.28347,83.70722 27.21375,17.17023 9.7192,-15.99954 -24.88115,-14.43859 0.77752,-26.5358 29.93513,15.99953 8.16412,-19.90184 -24.1036,-13.26791 0.38878,-20.29207 8.54777,-5.49819 m -35.76158,-210.92469 -27.21376,-17.170218 -9.7192,15.999528 24.88116,14.43859 -0.77752,26.53579 -29.93513,-15.99953 -8.16412,19.90185 24.1036,13.2679 -0.38879,20.29207 -8.54779,5.4982 m 35.76155,-82.76418 27.21375,-17.170222 9.7192,15.999532 -24.88115,14.43859 0.77752,26.53579 29.93513,-15.99953 8.16412,19.90185 -24.1036,13.2679 0.38878,20.29207 10.49673,6.63396"
       inkscape:connector-curvature="0" />
  </g>
</svg>
