<svg xmlns="http://www.w3.org/2000/svg" width="1920" height="1080"><path d="M116,-241L322,-247L1258,-279Z" fill="#787878" stroke="#787878" stroke-width="1.51"/><path d="M322,-247L1103,-270L1258,-279Z" fill="#acacac" stroke="#acacac" stroke-width="1.51"/><path d="M641,1331L221,1374L1359,1327Z" fill="#626262" stroke="#626262" stroke-width="1.51"/><path d="M892,1294L641,1331L1359,1327Z" fill="#8e8e8e" stroke="#8e8e8e" stroke-width="1.51"/><path d="M1258,-279L1609,-230L1858,-275Z" fill="#828282" stroke="#828282" stroke-width="1.51"/><path d="M1258,-279L1858,-275L2063,-302Z" fill="#a4a4a4" stroke="#a4a4a4" stroke-width="1.51"/><path d="M2084,889L2118,1162L2202,884Z" fill="#747474" stroke="#747474" stroke-width="1.51"/><path d="M2132,587L2189,773L2219,326Z" fill="#858585" stroke="#858585" stroke-width="1.51"/><path d="M2189,773L2202,884L2219,326Z" fill="#5f5f5f" stroke="#5f5f5f" stroke-width="1.51"/><path d="M1945,1299L1359,1327L2245,1299Z" fill="#9e9e9e" stroke="#9e9e9e" stroke-width="1.51"/><path d="M2202,884L2118,1162L2245,1299Z" fill="#929292" stroke="#929292" stroke-width="1.51"/><path d="M2202,884L2245,1299L2277,121Z" fill="#363636" stroke="#363636" stroke-width="1.51"/><path d="M2219,326L2202,884L2277,121Z" fill="#666666" stroke="#666666" stroke-width="1.51"/><path d="M2265,-28L1957,32L2277,121Z" fill="#6b6b6b" stroke="#6b6b6b" stroke-width="1.51"/><path d="M1957,32L2044,216L2277,121Z" fill="#737373" stroke="#737373" stroke-width="1.51"/><path d="M2044,216L2219,326L2277,121Z" fill="#4e4e4e" stroke="#4e4e4e" stroke-width="1.51"/><path d="M2171,-250L1957,32L2265,-28Z" fill="#7c7c7c" stroke="#7c7c7c" stroke-width="1.51"/><path d="M1945,336L2132,587L2219,326Z" fill="#858585" stroke="#858585" stroke-width="1.51"/><path d="M2118,1162L1945,1299L2245,1299Z" fill="#6d6d6d" stroke="#6d6d6d" stroke-width="1.51"/><path d="M2084,889L1965,1103L2118,1162Z" fill="#a6a6a6" stroke="#a6a6a6" stroke-width="1.51"/><path d="M2063,-302L1957,32L2171,-250Z" fill="#898989" stroke="#898989" stroke-width="1.51"/><path d="M2189,773L2084,889L2202,884Z" fill="#424242" stroke="#424242" stroke-width="1.51"/><path d="M2044,216L1945,336L2219,326Z" fill="#6f6f6f" stroke="#6f6f6f" stroke-width="1.51"/><path d="M1647,1227L1359,1327L1945,1299Z" fill="#7b7b7b" stroke="#7b7b7b" stroke-width="1.51"/><path d="M1945,336L1999,597L2132,587Z" fill="#b2b2b2" stroke="#b2b2b2" stroke-width="1.51"/><path d="M2132,587L1999,597L2189,773Z" fill="#7d7d7d" stroke="#7d7d7d" stroke-width="1.51"/><path d="M1999,597L1942,736L2189,773Z" fill="#7f7f7f" stroke="#7f7f7f" stroke-width="1.51"/><path d="M1942,736L2084,889L2189,773Z" fill="#595959" stroke="#595959" stroke-width="1.51"/><path d="M1796,1235L1647,1227L1945,1299Z" fill="#acacac" stroke="#acacac" stroke-width="1.51"/><path d="M1858,-275L1957,32L2063,-302Z" fill="#a7a7a7" stroke="#a7a7a7" stroke-width="1.51"/><path d="M1965,1103L1945,1299L2118,1162Z" fill="#a5a5a5" stroke="#a5a5a5" stroke-width="1.51"/><path d="M1847,918L1965,1103L2084,889Z" fill="#a3a3a3" stroke="#a3a3a3" stroke-width="1.51"/><path d="M1942,736L1847,918L2084,889Z" fill="#787878" stroke="#787878" stroke-width="1.51"/><path d="M1945,336L1822,565L1999,597Z" fill="#d0d0d0" stroke="#d0d0d0" stroke-width="1.51"/><path d="M1957,32L1744,98L2044,216Z" fill="#a9a9a9" stroke="#a9a9a9" stroke-width="1.51"/><path d="M1744,98L1945,336L2044,216Z" fill="#9a9a9a" stroke="#9a9a9a" stroke-width="1.51"/><path d="M1166,1285L892,1294L1359,1327Z" fill="#717171" stroke="#717171" stroke-width="1.51"/><path d="M1258,-279L1401,-228L1609,-230Z" fill="#616161" stroke="#616161" stroke-width="1.51"/><path d="M1744,98L1811,338L1945,336Z" fill="#a4a4a4" stroke="#a4a4a4" stroke-width="1.51"/><path d="M1811,338L1822,565L1945,336Z" fill="#cdcdcd" stroke="#cdcdcd" stroke-width="1.51"/><path d="M1858,-275L1755,52L1957,32Z" fill="#d0d0d0" stroke="#d0d0d0" stroke-width="1.51"/><path d="M1865,1137L1945,1299L1965,1103Z" fill="#c3c3c3" stroke="#c3c3c3" stroke-width="1.51"/><path d="M1862,681L1942,736L1999,597Z" fill="#aaaaaa" stroke="#aaaaaa" stroke-width="1.51"/><path d="M1822,565L1862,681L1999,597Z" fill="#c9c9c9" stroke="#c9c9c9" stroke-width="1.51"/><path d="M1865,1137L1796,1235L1945,1299Z" fill="#c0c0c0" stroke="#c0c0c0" stroke-width="1.51"/><path d="M1755,52L1744,98L1957,32Z" fill="#c0c0c0" stroke="#c0c0c0" stroke-width="1.51"/><path d="M1847,918L1865,1137L1965,1103Z" fill="#d9d9d9" stroke="#d9d9d9" stroke-width="1.51"/><path d="M1636,-38L1755,52L1858,-275Z" fill="#b9b9b9" stroke="#b9b9b9" stroke-width="1.51"/><path d="M1862,681L1847,918L1942,736Z" fill="#959595" stroke="#959595" stroke-width="1.51"/><path d="M1744,98L1664,241L1811,338Z" fill="#929292" stroke="#929292" stroke-width="1.51"/><path d="M1606,723L1601,900L1847,918Z" fill="#737373" stroke="#737373" stroke-width="1.51"/><path d="M1609,-230L1636,-38L1858,-275Z" fill="#a6a6a6" stroke="#a6a6a6" stroke-width="1.51"/><path d="M1606,723L1847,918L1862,681Z" fill="#8f8f8f" stroke="#8f8f8f" stroke-width="1.51"/><path d="M1647,1227L1796,1235L1865,1137Z" fill="#bfbfbf" stroke="#bfbfbf" stroke-width="1.51"/><path d="M1580,1172L1647,1227L1865,1137Z" fill="#b7b7b7" stroke="#b7b7b7" stroke-width="1.51"/><path d="M1847,918L1601,900L1865,1137Z" fill="#bababa" stroke="#bababa" stroke-width="1.51"/><path d="M1601,900L1580,1172L1865,1137Z" fill="#c5c5c5" stroke="#c5c5c5" stroke-width="1.51"/><path d="M1822,565L1606,723L1862,681Z" fill="#b5b5b5" stroke="#b5b5b5" stroke-width="1.51"/><path d="M1557,362L1553,539L1811,338Z" fill="#9e9e9e" stroke="#9e9e9e" stroke-width="1.51"/><path d="M1811,338L1553,539L1822,565Z" fill="#c5c5c5" stroke="#c5c5c5" stroke-width="1.51"/><path d="M1553,539L1606,723L1822,565Z" fill="#acacac" stroke="#acacac" stroke-width="1.51"/><path d="M1664,241L1557,362L1811,338Z" fill="#8d8d8d" stroke="#8d8d8d" stroke-width="1.51"/><path d="M322,-247L667,-188L1103,-270Z" fill="#8f8f8f" stroke="#8f8f8f" stroke-width="1.51"/><path d="M1636,-38L1744,98L1755,52Z" fill="#a9a9a9" stroke="#a9a9a9" stroke-width="1.51"/><path d="M1490,148L1664,241L1744,98Z" fill="#838383" stroke="#838383" stroke-width="1.51"/><path d="M1636,-38L1490,148L1744,98Z" fill="#8f8f8f" stroke="#8f8f8f" stroke-width="1.51"/><path d="M1490,1132L1580,1172L1601,900Z" fill="#a5a5a5" stroke="#a5a5a5" stroke-width="1.51"/><path d="M1609,-230L1491,-51L1636,-38Z" fill="#8f8f8f" stroke="#8f8f8f" stroke-width="1.51"/><path d="M1491,-51L1490,148L1636,-38Z" fill="#838383" stroke="#838383" stroke-width="1.51"/><path d="M1580,1172L1359,1327L1647,1227Z" fill="#727272" stroke="#727272" stroke-width="1.51"/><path d="M1500,307L1557,362L1664,241Z" fill="#737373" stroke="#737373" stroke-width="1.51"/><path d="M1490,148L1500,307L1664,241Z" fill="#666666" stroke="#666666" stroke-width="1.51"/><path d="M1450,903L1490,1132L1601,900Z" fill="#7a7a7a" stroke="#7a7a7a" stroke-width="1.51"/><path d="M1553,539L1480,711L1606,723Z" fill="#818181" stroke="#818181" stroke-width="1.51"/><path d="M1480,711L1450,903L1601,900Z" fill="#4a4a4a" stroke="#4a4a4a" stroke-width="1.51"/><path d="M1480,711L1601,900L1606,723Z" fill="#5f5f5f" stroke="#5f5f5f" stroke-width="1.51"/><path d="M1485,552L1480,711L1553,539Z" fill="#898989" stroke="#898989" stroke-width="1.51"/><path d="M1490,1132L1359,1327L1580,1172Z" fill="#747474" stroke="#747474" stroke-width="1.51"/><path d="M1401,-228L1491,-51L1609,-230Z" fill="#787878" stroke="#787878" stroke-width="1.51"/><path d="M1485,552L1553,539L1557,362Z" fill="#969696" stroke="#969696" stroke-width="1.51"/><path d="M1500,307L1485,552L1557,362Z" fill="#7f7f7f" stroke="#7f7f7f" stroke-width="1.51"/><path d="M1277,981L1304,1084L1450,903Z" fill="#727272" stroke="#727272" stroke-width="1.51"/><path d="M1257,525L1480,711L1485,552Z" fill="#757575" stroke="#757575" stroke-width="1.51"/><path d="M1233,426L1257,525L1485,552Z" fill="#8d8d8d" stroke="#8d8d8d" stroke-width="1.51"/><path d="M1450,903L1304,1084L1490,1132Z" fill="#797979" stroke="#797979" stroke-width="1.51"/><path d="M1304,1084L1359,1327L1490,1132Z" fill="#757575" stroke="#757575" stroke-width="1.51"/><path d="M1165,93L1233,426L1490,148Z" fill="#5c5c5c" stroke="#5c5c5c" stroke-width="1.51"/><path d="M1203,-31L1165,93L1490,148Z" fill="#747474" stroke="#747474" stroke-width="1.51"/><path d="M1203,-31L1490,148L1491,-51Z" fill="#666666" stroke="#666666" stroke-width="1.51"/><path d="M1490,148L1233,426L1500,307Z" fill="#4d4d4d" stroke="#4d4d4d" stroke-width="1.51"/><path d="M1233,426L1485,552L1500,307Z" fill="#6b6b6b" stroke="#6b6b6b" stroke-width="1.51"/><path d="M1131,749L1450,903L1480,711Z" fill="#434343" stroke="#434343" stroke-width="1.51"/><path d="M1401,-228L1203,-31L1491,-51Z" fill="#6e6e6e" stroke="#6e6e6e" stroke-width="1.51"/><path d="M1175,652L1131,749L1480,711Z" fill="#6e6e6e" stroke="#6e6e6e" stroke-width="1.51"/><path d="M1257,525L1175,652L1480,711Z" fill="#7e7e7e" stroke="#7e7e7e" stroke-width="1.51"/><path d="M1131,749L1277,981L1450,903Z" fill="#565656" stroke="#565656" stroke-width="1.51"/><path d="M1304,1084L1166,1285L1359,1327Z" fill="#747474" stroke="#747474" stroke-width="1.51"/><path d="M1258,-279L1203,-31L1401,-228Z" fill="#797979" stroke="#797979" stroke-width="1.51"/><path d="M1131,749L1089,860L1277,981Z" fill="#696969" stroke="#696969" stroke-width="1.51"/><path d="M1165,93L1018,418L1233,426Z" fill="#858585" stroke="#858585" stroke-width="1.51"/><path d="M1103,-270L1203,-31L1258,-279Z" fill="#8c8c8c" stroke="#8c8c8c" stroke-width="1.51"/><path d="M1027,1220L1166,1285L1304,1084Z" fill="#9b9b9b" stroke="#9b9b9b" stroke-width="1.51"/><path d="M1007,1186L1027,1220L1304,1084Z" fill="#b6b6b6" stroke="#b6b6b6" stroke-width="1.51"/><path d="M1277,981L1007,1186L1304,1084Z" fill="#b4b4b4" stroke="#b4b4b4" stroke-width="1.51"/><path d="M1089,860L1007,1186L1277,981Z" fill="#a6a6a6" stroke="#a6a6a6" stroke-width="1.51"/><path d="M1037,81L1018,418L1165,93Z" fill="#8d8d8d" stroke="#8d8d8d" stroke-width="1.51"/><path d="M1233,426L1022,520L1257,525Z" fill="#aaaaaa" stroke="#aaaaaa" stroke-width="1.51"/><path d="M1022,520L1175,652L1257,525Z" fill="#b3b3b3" stroke="#b3b3b3" stroke-width="1.51"/><path d="M1103,-270L1068,14L1203,-31Z" fill="#a1a1a1" stroke="#a1a1a1" stroke-width="1.51"/><path d="M1018,418L1022,520L1233,426Z" fill="#b2b2b2" stroke="#b2b2b2" stroke-width="1.51"/><path d="M927,-146L1068,14L1103,-270Z" fill="#b2b2b2" stroke="#b2b2b2" stroke-width="1.51"/><path d="M1068,14L1165,93L1203,-31Z" fill="#999999" stroke="#999999" stroke-width="1.51"/><path d="M432,1319L221,1374L641,1331Z" fill="#4a4a4a" stroke="#4a4a4a" stroke-width="1.51"/><path d="M895,150L1018,418L1037,81Z" fill="#9d9d9d" stroke="#9d9d9d" stroke-width="1.51"/><path d="M930,878L1007,1186L1089,860Z" fill="#b3b3b3" stroke="#b3b3b3" stroke-width="1.51"/><path d="M1027,1220L892,1294L1166,1285Z" fill="#989898" stroke="#989898" stroke-width="1.51"/><path d="M1022,520L1131,749L1175,652Z" fill="#a2a2a2" stroke="#a2a2a2" stroke-width="1.51"/><path d="M1068,14L1037,81L1165,93Z" fill="#9f9f9f" stroke="#9f9f9f" stroke-width="1.51"/><path d="M667,-188L927,-146L1103,-270Z" fill="#b2b2b2" stroke="#b2b2b2" stroke-width="1.51"/><path d="M940,545L837,728L1131,749Z" fill="#b6b6b6" stroke="#b6b6b6" stroke-width="1.51"/><path d="M930,878L1089,860L1131,749Z" fill="#747474" stroke="#747474" stroke-width="1.51"/><path d="M837,728L930,878L1131,749Z" fill="#919191" stroke="#919191" stroke-width="1.51"/><path d="M1022,520L940,545L1131,749Z" fill="#c0c0c0" stroke="#c0c0c0" stroke-width="1.51"/><path d="M930,878L811,1084L1007,1186Z" fill="#d3d3d3" stroke="#d3d3d3" stroke-width="1.51"/><path d="M895,150L798,343L1018,418Z" fill="#9f9f9f" stroke="#9f9f9f" stroke-width="1.51"/><path d="M855,4L1037,81L1068,14Z" fill="#bababa" stroke="#bababa" stroke-width="1.51"/><path d="M927,-146L855,4L1068,14Z" fill="#c8c8c8" stroke="#c8c8c8" stroke-width="1.51"/><path d="M1018,418L940,545L1022,520Z" fill="#d3d3d3" stroke="#d3d3d3" stroke-width="1.51"/><path d="M855,4L895,150L1037,81Z" fill="#b3b3b3" stroke="#b3b3b3" stroke-width="1.51"/><path d="M1007,1186L892,1294L1027,1220Z" fill="#b3b3b3" stroke="#b3b3b3" stroke-width="1.51"/><path d="M798,343L940,545L1018,418Z" fill="#c4c4c4" stroke="#c4c4c4" stroke-width="1.51"/><path d="M811,1084L892,1294L1007,1186Z" fill="#c2c2c2" stroke="#c2c2c2" stroke-width="1.51"/><path d="M700,864L811,1084L930,878Z" fill="#999999" stroke="#999999" stroke-width="1.51"/><path d="M660,501L837,728L940,545Z" fill="#bbbbbb" stroke="#bbbbbb" stroke-width="1.51"/><path d="M798,343L660,501L940,545Z" fill="#b7b7b7" stroke="#b7b7b7" stroke-width="1.51"/><path d="M744,-42L855,4L927,-146Z" fill="#b4b4b4" stroke="#b4b4b4" stroke-width="1.51"/><path d="M837,728L700,864L930,878Z" fill="#717171" stroke="#717171" stroke-width="1.51"/><path d="M667,-188L744,-42L927,-146Z" fill="#a4a4a4" stroke="#a4a4a4" stroke-width="1.51"/><path d="M811,1084L627,1146L892,1294Z" fill="#b3b3b3" stroke="#b3b3b3" stroke-width="1.51"/><path d="M627,1146L641,1331L892,1294Z" fill="#848484" stroke="#848484" stroke-width="1.51"/><path d="M855,4L739,106L895,150Z" fill="#a2a2a2" stroke="#a2a2a2" stroke-width="1.51"/><path d="M739,106L798,343L895,150Z" fill="#8d8d8d" stroke="#8d8d8d" stroke-width="1.51"/><path d="M322,-247L508,-163L667,-188Z" fill="#777777" stroke="#777777" stroke-width="1.51"/><path d="M660,501L649,754L837,728Z" fill="#949494" stroke="#949494" stroke-width="1.51"/><path d="M744,-42L739,106L855,4Z" fill="#a3a3a3" stroke="#a3a3a3" stroke-width="1.51"/><path d="M739,106L565,199L798,343Z" fill="#797979" stroke="#797979" stroke-width="1.51"/><path d="M649,754L700,864L837,728Z" fill="#6f6f6f" stroke="#6f6f6f" stroke-width="1.51"/><path d="M595,362L660,501L798,343Z" fill="#949494" stroke="#949494" stroke-width="1.51"/><path d="M565,199L595,362L798,343Z" fill="#767676" stroke="#767676" stroke-width="1.51"/><path d="M700,864L627,1146L811,1084Z" fill="#aaaaaa" stroke="#aaaaaa" stroke-width="1.51"/><path d="M518,666L649,754L660,501Z" fill="#8a8a8a" stroke="#8a8a8a" stroke-width="1.51"/><path d="M503,1109L627,1146L700,864Z" fill="#9c9c9c" stroke="#9c9c9c" stroke-width="1.51"/><path d="M565,199L739,106L744,-42Z" fill="#898989" stroke="#898989" stroke-width="1.51"/><path d="M443,-109L565,199L744,-42Z" fill="#858585" stroke="#858585" stroke-width="1.51"/><path d="M508,-163L443,-109L744,-42Z" fill="#838383" stroke="#838383" stroke-width="1.51"/><path d="M667,-188L508,-163L744,-42Z" fill="#8d8d8d" stroke="#8d8d8d" stroke-width="1.51"/><path d="M649,754L406,871L700,864Z" fill="#4e4e4e" stroke="#4e4e4e" stroke-width="1.51"/><path d="M406,871L503,1109L700,864Z" fill="#6f6f6f" stroke="#6f6f6f" stroke-width="1.51"/><path d="M627,1146L432,1319L641,1331Z" fill="#696969" stroke="#696969" stroke-width="1.51"/><path d="M444,592L518,666L660,501Z" fill="#909090" stroke="#909090" stroke-width="1.51"/><path d="M595,362L461,431L660,501Z" fill="#8a8a8a" stroke="#8a8a8a" stroke-width="1.51"/><path d="M503,1109L432,1319L627,1146Z" fill="#828282" stroke="#828282" stroke-width="1.51"/><path d="M461,431L444,592L660,501Z" fill="#959595" stroke="#959595" stroke-width="1.51"/><path d="M518,666L406,871L649,754Z" fill="#565656" stroke="#565656" stroke-width="1.51"/><path d="M443,-109L361,213L565,199Z" fill="#737373" stroke="#737373" stroke-width="1.51"/><path d="M406,871L340,969L503,1109Z" fill="#838383" stroke="#838383" stroke-width="1.51"/><path d="M361,213L461,431L565,199Z" fill="#626262" stroke="#626262" stroke-width="1.51"/><path d="M565,199L461,431L595,362Z" fill="#6c6c6c" stroke="#6c6c6c" stroke-width="1.51"/><path d="M275,-26L361,213L443,-109Z" fill="#898989" stroke="#898989" stroke-width="1.51"/><path d="M353,1182L432,1319L503,1109Z" fill="#858585" stroke="#858585" stroke-width="1.51"/><path d="M361,213L316,330L461,431Z" fill="#747474" stroke="#747474" stroke-width="1.51"/><path d="M322,-247L443,-109L508,-163Z" fill="#808080" stroke="#808080" stroke-width="1.51"/><path d="M444,592L324,670L518,666Z" fill="#838383" stroke="#838383" stroke-width="1.51"/><path d="M324,670L406,871L518,666Z" fill="#676767" stroke="#676767" stroke-width="1.51"/><path d="M340,969L353,1182L503,1109Z" fill="#aaaaaa" stroke="#aaaaaa" stroke-width="1.51"/><path d="M253,497L444,592L461,431Z" fill="#a1a1a1" stroke="#a1a1a1" stroke-width="1.51"/><path d="M316,330L253,497L461,431Z" fill="#8f8f8f" stroke="#8f8f8f" stroke-width="1.51"/><path d="M322,-247L275,-26L443,-109Z" fill="#8b8b8b" stroke="#8b8b8b" stroke-width="1.51"/><path d="M253,497L324,670L444,592Z" fill="#9f9f9f" stroke="#9f9f9f" stroke-width="1.51"/><path d="M353,1182L221,1374L432,1319Z" fill="#676767" stroke="#676767" stroke-width="1.51"/><path d="M275,-26L186,173L361,213Z" fill="#828282" stroke="#828282" stroke-width="1.51"/><path d="M165,746L340,969L406,871Z" fill="#636363" stroke="#636363" stroke-width="1.51"/><path d="M324,670L165,746L406,871Z" fill="#6a6a6a" stroke="#6a6a6a" stroke-width="1.51"/><path d="M165,746L78,938L340,969Z" fill="#757575" stroke="#757575" stroke-width="1.51"/><path d="M340,969L79,1072L353,1182Z" fill="#b4b4b4" stroke="#b4b4b4" stroke-width="1.51"/><path d="M186,173L316,330L361,213Z" fill="#6f6f6f" stroke="#6f6f6f" stroke-width="1.51"/><path d="M116,-241L275,-26L322,-247Z" fill="#939393" stroke="#939393" stroke-width="1.51"/><path d="M79,1072L221,1374L353,1182Z" fill="#979797" stroke="#979797" stroke-width="1.51"/><path d="M78,938L79,1072L340,969Z" fill="#9f9f9f" stroke="#9f9f9f" stroke-width="1.51"/><path d="M253,497L110,543L324,670Z" fill="#b0b0b0" stroke="#b0b0b0" stroke-width="1.51"/><path d="M110,543L165,746L324,670Z" fill="#979797" stroke="#979797" stroke-width="1.51"/><path d="M79,1072L101,1381L221,1374Z" fill="#828282" stroke="#828282" stroke-width="1.51"/><path d="M26,321L253,497L316,330Z" fill="#949494" stroke="#949494" stroke-width="1.51"/><path d="M186,173L26,321L316,330Z" fill="#7c7c7c" stroke="#7c7c7c" stroke-width="1.51"/><path d="M26,321L110,543L253,497Z" fill="#aeaeae" stroke="#aeaeae" stroke-width="1.51"/><path d="M70,42L186,173L275,-26Z" fill="#959595" stroke="#959595" stroke-width="1.51"/><path d="M116,-241L70,42L275,-26Z" fill="#a3a3a3" stroke="#a3a3a3" stroke-width="1.51"/><path d="M79,1072L-96,1153L101,1381Z" fill="#a7a7a7" stroke="#a7a7a7" stroke-width="1.51"/><path d="M-88,-46L70,42L116,-241Z" fill="#a9a9a9" stroke="#a9a9a9" stroke-width="1.51"/><path d="M110,543L-21,736L165,746Z" fill="#9b9b9b" stroke="#9b9b9b" stroke-width="1.51"/><path d="M-21,736L78,938L165,746Z" fill="#727272" stroke="#727272" stroke-width="1.51"/><path d="M70,42L-19,163L186,173Z" fill="#959595" stroke="#959595" stroke-width="1.51"/><path d="M-19,163L26,321L186,173Z" fill="#868686" stroke="#868686" stroke-width="1.51"/><path d="M-96,1153L-94,1341L101,1381Z" fill="#7c7c7c" stroke="#7c7c7c" stroke-width="1.51"/><path d="M-51,-235L-88,-46L116,-241Z" fill="#9f9f9f" stroke="#9f9f9f" stroke-width="1.51"/><path d="M26,321L-81,527L110,543Z" fill="#b3b3b3" stroke="#b3b3b3" stroke-width="1.51"/><path d="M-81,527L-21,736L110,543Z" fill="#b1b1b1" stroke="#b1b1b1" stroke-width="1.51"/><path d="M-138,362L-81,527L26,321Z" fill="#a0a0a0" stroke="#a0a0a0" stroke-width="1.51"/><path d="M-21,736L-122,992L78,938Z" fill="#7e7e7e" stroke="#7e7e7e" stroke-width="1.51"/><path d="M78,938L-122,992L79,1072Z" fill="#a9a9a9" stroke="#a9a9a9" stroke-width="1.51"/><path d="M-122,992L-96,1153L79,1072Z" fill="#c2c2c2" stroke="#c2c2c2" stroke-width="1.51"/><path d="M-88,-46L-19,163L70,42Z" fill="#9d9d9d" stroke="#9d9d9d" stroke-width="1.51"/><path d="M-203,737L-122,992L-21,736Z" fill="#646464" stroke="#646464" stroke-width="1.51"/><path d="M-19,163L-138,362L26,321Z" fill="#828282" stroke="#828282" stroke-width="1.51"/><path d="M-231,-141L-88,-46L-51,-235Z" fill="#9c9c9c" stroke="#9c9c9c" stroke-width="1.51"/><path d="M-81,527L-203,737L-21,736Z" fill="#969696" stroke="#969696" stroke-width="1.51"/><path d="M-88,-46L-219,239L-19,163Z" fill="#8e8e8e" stroke="#8e8e8e" stroke-width="1.51"/><path d="M-219,239L-138,362L-19,163Z" fill="#787878" stroke="#787878" stroke-width="1.51"/><path d="M-203,737L-295,880L-122,992Z" fill="#6e6e6e" stroke="#6e6e6e" stroke-width="1.51"/><path d="M-122,992L-196,1056L-96,1153Z" fill="#bababa" stroke="#bababa" stroke-width="1.51"/><path d="M-235,-71L-219,239L-88,-46Z" fill="#979797" stroke="#979797" stroke-width="1.51"/><path d="M-267,589L-203,737L-81,527Z" fill="#a3a3a3" stroke="#a3a3a3" stroke-width="1.51"/><path d="M-96,1153L-331,1260L-94,1341Z" fill="#878787" stroke="#878787" stroke-width="1.51"/><path d="M-231,-141L-235,-71L-88,-46Z" fill="#9d9d9d" stroke="#9d9d9d" stroke-width="1.51"/><path d="M-138,362L-200,368L-81,527Z" fill="#a0a0a0" stroke="#a0a0a0" stroke-width="1.51"/><path d="M-200,368L-267,589L-81,527Z" fill="#b2b2b2" stroke="#b2b2b2" stroke-width="1.51"/><path d="M-196,1056L-331,1260L-96,1153Z" fill="#b1b1b1" stroke="#b1b1b1" stroke-width="1.51"/><path d="M-219,239L-200,368L-138,362Z" fill="#868686" stroke="#868686" stroke-width="1.51"/><path d="M-295,880L-196,1056L-122,992Z" fill="#959595" stroke="#959595" stroke-width="1.51"/><path d="M-295,880L-331,1260L-196,1056Z" fill="#b3b3b3" stroke="#b3b3b3" stroke-width="1.51"/><path d="M-219,239L-267,589L-200,368Z" fill="#969696" stroke="#969696" stroke-width="1.51"/><path d="M-267,589L-295,880L-203,737Z" fill="#797979" stroke="#797979" stroke-width="1.51"/><path d="M-331,1260L-295,880L-235,-71Z" fill="#868686" stroke="#868686" stroke-width="1.51"/><path d="M-235,-71L-267,589L-219,239Z" fill="#737373" stroke="#737373" stroke-width="1.51"/><path d="M-295,880L-267,589L-235,-71Z" fill="#a6a6a6" stroke="#a6a6a6" stroke-width="1.51"/></svg>