<svg xmlns="http://www.w3.org/2000/svg" width="1920" height="1080"><path d="M153,-305L378,-312L1386,-351Z" fill="#6f2318" stroke="#6f2318" stroke-width="1.51"/><path d="M378,-312L1223,-339L1386,-351Z" fill="#5f221a" stroke="#5f221a" stroke-width="1.51"/><path d="M256,1449L135,1458L1483,1392Z" fill="#ab6b5f" stroke="#ab6b5f" stroke-width="1.51"/><path d="M714,1397L256,1449L1483,1392Z" fill="#c66a5b" stroke="#c66a5b" stroke-width="1.51"/><path d="M993,1353L714,1397L1483,1392Z" fill="#94625d" stroke="#94625d" stroke-width="1.51"/><path d="M1386,-351L1761,-292L2036,-346Z" fill="#6c2f29" stroke="#6c2f29" stroke-width="1.51"/><path d="M1807,1272L1483,1392L2117,1358Z" fill="#af7370" stroke="#af7370" stroke-width="1.51"/><path d="M2118,318L2182,609L2237,198Z" fill="#c46758" stroke="#c46758" stroke-width="1.51"/><path d="M1386,-351L2036,-346L2259,-379Z" fill="#633836" stroke="#633836" stroke-width="1.51"/><path d="M2132,-1L2237,198L2259,-379Z" fill="#c66a55" stroke="#c66a55" stroke-width="1.51"/><path d="M2036,-346L2132,-1L2259,-379Z" fill="#9c574a" stroke="#9c574a" stroke-width="1.51"/><path d="M2024,947L2142,1147L2286,913Z" fill="#a96762" stroke="#a96762" stroke-width="1.51"/><path d="M2114,753L2024,947L2286,913Z" fill="#9e5e5a" stroke="#9e5e5a" stroke-width="1.51"/><path d="M2142,1147L2117,1358L2286,913Z" fill="#ae7976" stroke="#ae7976" stroke-width="1.51"/><path d="M2182,609L2114,753L2286,913Z" fill="#8e615f" stroke="#8e615f" stroke-width="1.51"/><path d="M2237,198L2182,609L2286,913Z" fill="#9f6760" stroke="#9f6760" stroke-width="1.51"/><path d="M2259,-379L2237,198L2286,913Z" fill="#936961" stroke="#936961" stroke-width="1.51"/><path d="M1962,1282L1807,1272L2117,1358Z" fill="#b27b7a" stroke="#b27b7a" stroke-width="1.51"/><path d="M2118,318L1993,570L2182,609Z" fill="#b65f55" stroke="#b65f55" stroke-width="1.51"/><path d="M2132,-1L2118,318L2237,198Z" fill="#7a5f5d" stroke="#7a5f5d" stroke-width="1.51"/><path d="M1899,56L1980,321L2118,318Z" fill="#925651" stroke="#925651" stroke-width="1.51"/><path d="M1980,321L1993,570L2118,318Z" fill="#ce5a4d" stroke="#ce5a4d" stroke-width="1.51"/><path d="M1899,56L2118,318L2132,-1Z" fill="#7b5755" stroke="#7b5755" stroke-width="1.51"/><path d="M2036,-346L1913,23L2132,-1Z" fill="#da5b47" stroke="#da5b47" stroke-width="1.51"/><path d="M2046,1188L2117,1358L2142,1147Z" fill="#b17e7c" stroke="#b17e7c" stroke-width="1.51"/><path d="M2041,686L2114,753L2182,609Z" fill="#865c5b" stroke="#865c5b" stroke-width="1.51"/><path d="M1993,570L2041,686L2182,609Z" fill="#935a56" stroke="#935a56" stroke-width="1.51"/><path d="M1793,-85L1913,23L2036,-346Z" fill="#d54e3e" stroke="#d54e3e" stroke-width="1.51"/><path d="M2046,1188L1962,1282L2117,1358Z" fill="#b27e7c" stroke="#b27e7c" stroke-width="1.51"/><path d="M1913,23L1899,56L2132,-1Z" fill="#a4564b" stroke="#a4564b" stroke-width="1.51"/><path d="M2024,947L2046,1188L2142,1147Z" fill="#af6b69" stroke="#af6b69" stroke-width="1.51"/><path d="M1386,-351L1534,-290L1761,-292Z" fill="#6e221d" stroke="#6e221d" stroke-width="1.51"/><path d="M2041,686L2024,947L2114,753Z" fill="#955956" stroke="#955956" stroke-width="1.51"/><path d="M1275,1342L993,1353L1483,1392Z" fill="#8c5f5c" stroke="#8c5f5c" stroke-width="1.51"/><path d="M1899,56L1827,228L1980,321Z" fill="#884e4a" stroke="#884e4a" stroke-width="1.51"/><path d="M1758,737L1752,927L2024,947Z" fill="#9d4745" stroke="#9d4745" stroke-width="1.51"/><path d="M1761,-292L1793,-85L2036,-346Z" fill="#9c4137" stroke="#9c4137" stroke-width="1.51"/><path d="M1758,737L2024,947L2041,686Z" fill="#95504e" stroke="#95504e" stroke-width="1.51"/><path d="M1807,1272L1962,1282L2046,1188Z" fill="#b47373" stroke="#b47373" stroke-width="1.51"/><path d="M2024,947L1752,927L2046,1188Z" fill="#ac5956" stroke="#ac5956" stroke-width="1.51"/><path d="M1752,927L1807,1272L2046,1188Z" fill="#b0615f" stroke="#b0615f" stroke-width="1.51"/><path d="M1993,570L1758,737L2041,686Z" fill="#894f4f" stroke="#894f4f" stroke-width="1.51"/><path d="M1752,927L1726,1230L1807,1272Z" fill="#ae5957" stroke="#ae5957" stroke-width="1.51"/><path d="M1980,321L1694,539L1993,570Z" fill="#bc4e46" stroke="#bc4e46" stroke-width="1.51"/><path d="M1698,349L1694,539L1980,321Z" fill="#c9443b" stroke="#c9443b" stroke-width="1.51"/><path d="M1694,539L1758,737L1993,570Z" fill="#934743" stroke="#934743" stroke-width="1.51"/><path d="M1827,228L1698,349L1980,321Z" fill="#a74a42" stroke="#a74a42" stroke-width="1.51"/><path d="M1793,-85L1899,56L1913,23Z" fill="#ad4d41" stroke="#ad4d41" stroke-width="1.51"/><path d="M1641,1181L1726,1230L1752,927Z" fill="#aa514e" stroke="#aa514e" stroke-width="1.51"/><path d="M1641,116L1827,228L1899,56Z" fill="#764542" stroke="#764542" stroke-width="1.51"/><path d="M1793,-85L1641,116L1899,56Z" fill="#9e453c" stroke="#9e453c" stroke-width="1.51"/><path d="M378,-312L745,-241L1223,-339Z" fill="#951f15" stroke="#951f15" stroke-width="1.51"/><path d="M1761,-292L1642,-100L1793,-85Z" fill="#c03a2e" stroke="#c03a2e" stroke-width="1.51"/><path d="M1642,-100L1641,116L1793,-85Z" fill="#ae3d31" stroke="#ae3d31" stroke-width="1.51"/><path d="M1726,1230L1483,1392L1807,1272Z" fill="#ac6360" stroke="#ac6360" stroke-width="1.51"/><path d="M1653,283L1698,349L1827,228Z" fill="#9f4139" stroke="#9f4139" stroke-width="1.51"/><path d="M1641,116L1653,283L1827,228Z" fill="#853f3a" stroke="#853f3a" stroke-width="1.51"/><path d="M1594,930L1641,1181L1752,927Z" fill="#a3413e" stroke="#a3413e" stroke-width="1.51"/><path d="M1694,539L1629,722L1758,737Z" fill="#813d3b" stroke="#813d3b" stroke-width="1.51"/><path d="M1629,722L1752,927L1758,737Z" fill="#8f3d3b" stroke="#8f3d3b" stroke-width="1.51"/><path d="M1635,555L1629,722L1694,539Z" fill="#8f3935" stroke="#8f3935" stroke-width="1.51"/><path d="M1641,1181L1483,1392L1726,1230Z" fill="#aa5c58" stroke="#aa5c58" stroke-width="1.51"/><path d="M1629,722L1594,930L1752,927Z" fill="#953835" stroke="#953835" stroke-width="1.51"/><path d="M1534,-290L1642,-100L1761,-292Z" fill="#9a2f25" stroke="#9a2f25" stroke-width="1.51"/><path d="M1635,555L1694,539L1698,349Z" fill="#b13a33" stroke="#b13a33" stroke-width="1.51"/><path d="M1594,930L1441,1124L1641,1181Z" fill="#a2403e" stroke="#a2403e" stroke-width="1.51"/><path d="M1355,427L1635,555L1653,283Z" fill="#bb2a27" stroke="#bb2a27" stroke-width="1.51"/><path d="M1653,283L1635,555L1698,349Z" fill="#c03830" stroke="#c03830" stroke-width="1.51"/><path d="M1409,1023L1441,1124L1594,930Z" fill="#9a3735" stroke="#9a3735" stroke-width="1.51"/><path d="M1384,522L1629,722L1635,555Z" fill="#8d302d" stroke="#8d302d" stroke-width="1.51"/><path d="M1355,427L1384,522L1635,555Z" fill="#9f2e29" stroke="#9f2e29" stroke-width="1.51"/><path d="M1441,1124L1483,1392L1641,1181Z" fill="#a7504d" stroke="#a7504d" stroke-width="1.51"/><path d="M1274,50L1355,427L1641,116Z" fill="#72322d" stroke="#72322d" stroke-width="1.51"/><path d="M1320,-76L1274,50L1641,116Z" fill="#8a3128" stroke="#8a3128" stroke-width="1.51"/><path d="M1320,-76L1641,116L1642,-100Z" fill="#a62e24" stroke="#a62e24" stroke-width="1.51"/><path d="M1641,116L1355,427L1653,283Z" fill="#94312b" stroke="#94312b" stroke-width="1.51"/><path d="M1257,768L1594,930L1629,722Z" fill="#862e2d" stroke="#862e2d" stroke-width="1.51"/><path d="M1534,-290L1320,-76L1642,-100Z" fill="#b6241d" stroke="#b6241d" stroke-width="1.51"/><path d="M1384,522L1286,651L1629,722Z" fill="#7c302e" stroke="#7c302e" stroke-width="1.51"/><path d="M1286,651L1257,768L1629,722Z" fill="#74302f" stroke="#74302f" stroke-width="1.51"/><path d="M1257,768L1409,1023L1594,930Z" fill="#8b2d2c" stroke="#8b2d2c" stroke-width="1.51"/><path d="M1441,1124L1275,1342L1483,1392Z" fill="#9b5653" stroke="#9b5653" stroke-width="1.51"/><path d="M1386,-351L1320,-76L1534,-290Z" fill="#85251d" stroke="#85251d" stroke-width="1.51"/><path d="M1257,768L1206,878L1409,1023Z" fill="#802e2d" stroke="#802e2d" stroke-width="1.51"/><path d="M1274,50L1120,417L1355,427Z" fill="#84332b" stroke="#84332b" stroke-width="1.51"/><path d="M1223,-339L1320,-76L1386,-351Z" fill="#76261e" stroke="#76261e" stroke-width="1.51"/><path d="M1409,1023L1132,1263L1441,1124Z" fill="#934644" stroke="#934644" stroke-width="1.51"/><path d="M1132,1263L1275,1342L1441,1124Z" fill="#915251" stroke="#915251" stroke-width="1.51"/><path d="M1206,878L1107,1247L1409,1023Z" fill="#873c3a" stroke="#873c3a" stroke-width="1.51"/><path d="M1107,1247L1132,1263L1409,1023Z" fill="#8c4b4a" stroke="#8c4b4a" stroke-width="1.51"/><path d="M1143,36L1120,417L1274,50Z" fill="#553230" stroke="#553230" stroke-width="1.51"/><path d="M1355,427L1125,516L1384,522Z" fill="#95302b" stroke="#95302b" stroke-width="1.51"/><path d="M1125,516L1286,651L1384,522Z" fill="#80312d" stroke="#80312d" stroke-width="1.51"/><path d="M1035,-191L1181,-21L1223,-339Z" fill="#8c2d21" stroke="#8c2d21" stroke-width="1.51"/><path d="M1223,-339L1181,-21L1320,-76Z" fill="#a62d20" stroke="#a62d20" stroke-width="1.51"/><path d="M1120,417L1125,516L1355,427Z" fill="#97312a" stroke="#97312a" stroke-width="1.51"/><path d="M996,119L1120,417L1143,36Z" fill="#65332e" stroke="#65332e" stroke-width="1.51"/><path d="M1039,900L1107,1247L1206,878Z" fill="#843835" stroke="#843835" stroke-width="1.51"/><path d="M1181,-21L1274,50L1320,-76Z" fill="#8e3227" stroke="#8e3227" stroke-width="1.51"/><path d="M1132,1263L993,1353L1275,1342Z" fill="#885a58" stroke="#885a58" stroke-width="1.51"/><path d="M1051,547L1257,768L1286,651Z" fill="#633130" stroke="#633130" stroke-width="1.51"/><path d="M1125,516L1051,547L1286,651Z" fill="#76322e" stroke="#76322e" stroke-width="1.51"/><path d="M1181,-21L1143,36L1274,50Z" fill="#7c332a" stroke="#7c332a" stroke-width="1.51"/><path d="M745,-241L1035,-191L1223,-339Z" fill="#82271c" stroke="#82271c" stroke-width="1.51"/><path d="M1051,547L926,743L1257,768Z" fill="#6a3230" stroke="#6a3230" stroke-width="1.51"/><path d="M1039,900L1206,878L1257,768Z" fill="#71302f" stroke="#71302f" stroke-width="1.51"/><path d="M926,743L1039,900L1257,768Z" fill="#78312e" stroke="#78312e" stroke-width="1.51"/><path d="M486,1383L256,1449L714,1397Z" fill="#88655f" stroke="#88655f" stroke-width="1.51"/><path d="M1039,900L896,1124L1107,1247Z" fill="#9b423e" stroke="#9b423e" stroke-width="1.51"/><path d="M996,119L880,327L1120,417Z" fill="#94332a" stroke="#94332a" stroke-width="1.51"/><path d="M948,-34L1143,36L1181,-21Z" fill="#8c3328" stroke="#8c3328" stroke-width="1.51"/><path d="M1035,-191L948,-34L1181,-21Z" fill="#af2f21" stroke="#af2f21" stroke-width="1.51"/><path d="M1107,1247L993,1353L1132,1263Z" fill="#945854" stroke="#945854" stroke-width="1.51"/><path d="M948,-34L996,119L1143,36Z" fill="#873429" stroke="#873429" stroke-width="1.51"/><path d="M1120,417L1051,547L1125,516Z" fill="#93322b" stroke="#93322b" stroke-width="1.51"/><path d="M880,327L1051,547L1120,417Z" fill="#b22e26" stroke="#b22e26" stroke-width="1.51"/><path d="M896,1124L993,1353L1107,1247Z" fill="#a3544e" stroke="#a3544e" stroke-width="1.51"/><path d="M785,883L896,1124L1039,900Z" fill="#a7312c" stroke="#a7312c" stroke-width="1.51"/><path d="M737,493L926,743L1051,547Z" fill="#9b312a" stroke="#9b312a" stroke-width="1.51"/><path d="M880,327L737,493L1051,547Z" fill="#c22b24" stroke="#c22b24" stroke-width="1.51"/><path d="M838,-89L948,-34L1035,-191Z" fill="#cd281c" stroke="#cd281c" stroke-width="1.51"/><path d="M745,-241L838,-89L1035,-191Z" fill="#c32318" stroke="#c32318" stroke-width="1.51"/><path d="M926,743L785,883L1039,900Z" fill="#982f2a" stroke="#982f2a" stroke-width="1.51"/><path d="M896,1124L698,1198L993,1353Z" fill="#be544a" stroke="#be544a" stroke-width="1.51"/><path d="M698,1198L714,1397L993,1353Z" fill="#ca5f51" stroke="#ca5f51" stroke-width="1.51"/><path d="M948,-34L832,65L996,119Z" fill="#963327" stroke="#963327" stroke-width="1.51"/><path d="M832,65L880,327L996,119Z" fill="#7f342b" stroke="#7f342b" stroke-width="1.51"/><path d="M737,493L724,774L926,743Z" fill="#9b312a" stroke="#9b312a" stroke-width="1.51"/><path d="M838,-89L832,65L948,-34Z" fill="#b92f21" stroke="#b92f21" stroke-width="1.51"/><path d="M832,65L646,177L880,327Z" fill="#9a3328" stroke="#9a3328" stroke-width="1.51"/><path d="M724,774L785,883L926,743Z" fill="#a62e28" stroke="#a62e28" stroke-width="1.51"/><path d="M378,-312L578,-211L745,-241Z" fill="#80291b" stroke="#80291b" stroke-width="1.51"/><path d="M646,177L658,349L880,327Z" fill="#b33024" stroke="#b33024" stroke-width="1.51"/><path d="M785,883L698,1198L896,1124Z" fill="#c33e35" stroke="#c33e35" stroke-width="1.51"/><path d="M658,349L737,493L880,327Z" fill="#dc221f" stroke="#dc221f" stroke-width="1.51"/><path d="M590,668L724,774L737,493Z" fill="#93332a" stroke="#93332a" stroke-width="1.51"/><path d="M571,1154L698,1198L785,883Z" fill="#b44138" stroke="#b44138" stroke-width="1.51"/><path d="M745,-241L578,-211L838,-89Z" fill="#c72116" stroke="#c72116" stroke-width="1.51"/><path d="M646,177L832,65L838,-89Z" fill="#b13123" stroke="#b13123" stroke-width="1.51"/><path d="M578,-211L646,177L838,-89Z" fill="#c12d1e" stroke="#c12d1e" stroke-width="1.51"/><path d="M578,-211L500,-170L646,177Z" fill="#b2311f" stroke="#b2311f" stroke-width="1.51"/><path d="M724,774L456,891L785,883Z" fill="#9a3029" stroke="#9a3029" stroke-width="1.51"/><path d="M456,891L571,1154L785,883Z" fill="#9c352e" stroke="#9c352e" stroke-width="1.51"/><path d="M698,1198L486,1383L714,1397Z" fill="#ae5f55" stroke="#ae5f55" stroke-width="1.51"/><path d="M501,603L590,668L737,493Z" fill="#91332a" stroke="#91332a" stroke-width="1.51"/><path d="M521,432L501,603L737,493Z" fill="#a03228" stroke="#a03228" stroke-width="1.51"/><path d="M658,349L521,432L737,493Z" fill="#c22c23" stroke="#c22c23" stroke-width="1.51"/><path d="M571,1154L486,1383L698,1198Z" fill="#a3564d" stroke="#a3564d" stroke-width="1.51"/><path d="M590,668L456,891L724,774Z" fill="#83322b" stroke="#83322b" stroke-width="1.51"/><path d="M500,-170L425,194L646,177Z" fill="#75352a" stroke="#75352a" stroke-width="1.51"/><path d="M321,-71L425,194L500,-170Z" fill="#7b3527" stroke="#7b3527" stroke-width="1.51"/><path d="M456,891L400,1009L571,1154Z" fill="#813b35" stroke="#813b35" stroke-width="1.51"/><path d="M646,177L425,194L658,349Z" fill="#82352a" stroke="#82352a" stroke-width="1.51"/><path d="M425,194L521,432L658,349Z" fill="#943428" stroke="#943428" stroke-width="1.51"/><path d="M415,1242L486,1383L571,1154Z" fill="#8d5651" stroke="#8d5651" stroke-width="1.51"/><path d="M425,194L370,311L521,432Z" fill="#7b352a" stroke="#7b352a" stroke-width="1.51"/><path d="M378,-312L500,-170L578,-211Z" fill="#7a2b1e" stroke="#7a2b1e" stroke-width="1.51"/><path d="M501,603L380,673L590,668Z" fill="#67332f" stroke="#67332f" stroke-width="1.51"/><path d="M380,673L456,891L590,668Z" fill="#67332e" stroke="#67332e" stroke-width="1.51"/><path d="M400,1009L415,1242L571,1154Z" fill="#844844" stroke="#844844" stroke-width="1.51"/><path d="M294,489L501,603L521,432Z" fill="#80352b" stroke="#80352b" stroke-width="1.51"/><path d="M370,311L294,489L521,432Z" fill="#903429" stroke="#903429" stroke-width="1.51"/><path d="M294,489L380,673L501,603Z" fill="#61332e" stroke="#61332e" stroke-width="1.51"/><path d="M321,-71L237,146L425,194Z" fill="#5f342c" stroke="#5f342c" stroke-width="1.51"/><path d="M378,-312L321,-71L500,-170Z" fill="#7e3021" stroke="#7e3021" stroke-width="1.51"/><path d="M415,1242L256,1449L486,1383Z" fill="#715c5c" stroke="#715c5c" stroke-width="1.51"/><path d="M212,765L400,1009L456,891Z" fill="#6c322d" stroke="#6c322d" stroke-width="1.51"/><path d="M380,673L212,765L456,891Z" fill="#61322e" stroke="#61322e" stroke-width="1.51"/><path d="M212,765L108,971L400,1009Z" fill="#8d3028" stroke="#8d3028" stroke-width="1.51"/><path d="M400,1009L109,1110L415,1242Z" fill="#884640" stroke="#884640" stroke-width="1.51"/><path d="M237,146L370,311L425,194Z" fill="#5d342d" stroke="#5d342d" stroke-width="1.51"/><path d="M153,-305L321,-71L378,-312Z" fill="#802b1b" stroke="#802b1b" stroke-width="1.51"/><path d="M109,1110L256,1449L415,1242Z" fill="#98584f" stroke="#98584f" stroke-width="1.51"/><path d="M108,971L109,1110L400,1009Z" fill="#9e3c32" stroke="#9e3c32" stroke-width="1.51"/><path d="M294,489L146,544L380,673Z" fill="#823429" stroke="#823429" stroke-width="1.51"/><path d="M146,544L212,765L380,673Z" fill="#72332b" stroke="#72332b" stroke-width="1.51"/><path d="M45,300L294,489L370,311Z" fill="#a83223" stroke="#a83223" stroke-width="1.51"/><path d="M237,146L45,300L370,311Z" fill="#893527" stroke="#893527" stroke-width="1.51"/><path d="M109,1110L135,1458L256,1449Z" fill="#b26152" stroke="#b26152" stroke-width="1.51"/><path d="M45,300L146,544L294,489Z" fill="#c02d1f" stroke="#c02d1f" stroke-width="1.51"/><path d="M98,11L237,146L321,-71Z" fill="#913524" stroke="#913524" stroke-width="1.51"/><path d="M153,-305L98,11L321,-71Z" fill="#cd2916" stroke="#cd2916" stroke-width="1.51"/><path d="M109,1110L-78,1207L135,1458Z" fill="#d15846" stroke="#d15846" stroke-width="1.51"/><path d="M-69,-94L98,11L153,-305Z" fill="#eb1708" stroke="#eb1708" stroke-width="1.51"/><path d="M146,544L12,753L212,765Z" fill="#903227" stroke="#903227" stroke-width="1.51"/><path d="M98,11L14,133L237,146Z" fill="#923524" stroke="#923524" stroke-width="1.51"/><path d="M14,133L45,300L237,146Z" fill="#943424" stroke="#943424" stroke-width="1.51"/><path d="M-78,1207L-76,1409L135,1458Z" fill="#d8634d" stroke="#d8634d" stroke-width="1.51"/><path d="M-24,-298L-69,-94L153,-305Z" fill="#c11909" stroke="#c11909" stroke-width="1.51"/><path d="M12,753L108,971L212,765Z" fill="#a42f24" stroke="#a42f24" stroke-width="1.51"/><path d="M45,300L-60,525L146,544Z" fill="#db2218" stroke="#db2218" stroke-width="1.51"/><path d="M-60,525L12,753L146,544Z" fill="#b62e20" stroke="#b62e20" stroke-width="1.51"/><path d="M12,753L-109,1036L108,971Z" fill="#c7241c" stroke="#c7241c" stroke-width="1.51"/><path d="M108,971L-109,1036L109,1110Z" fill="#cb382b" stroke="#cb382b" stroke-width="1.51"/><path d="M-109,1036L-78,1207L109,1110Z" fill="#cc4233" stroke="#cc4233" stroke-width="1.51"/><path d="M-129,349L-60,525L45,300Z" fill="#d81d14" stroke="#d81d14" stroke-width="1.51"/><path d="M-69,-94L14,133L98,11Z" fill="#c92b17" stroke="#c92b17" stroke-width="1.51"/><path d="M-60,525L-184,754L12,753Z" fill="#8f2d21" stroke="#8f2d21" stroke-width="1.51"/><path d="M-184,754L-109,1036L12,753Z" fill="#9d271d" stroke="#9d271d" stroke-width="1.51"/><path d="M-202,226L-129,349L14,133Z" fill="#922c1d" stroke="#922c1d" stroke-width="1.51"/><path d="M14,133L-129,349L45,300Z" fill="#b62d1c" stroke="#b62d1c" stroke-width="1.51"/><path d="M-217,-184L-69,-94L-24,-298Z" fill="#b11a0a" stroke="#b11a0a" stroke-width="1.51"/><path d="M-69,-94L-202,226L14,133Z" fill="#902e1d" stroke="#902e1d" stroke-width="1.51"/><path d="M-184,754L-294,902L-109,1036Z" fill="#80231c" stroke="#80231c" stroke-width="1.51"/><path d="M-109,1036L-174,1090L-78,1207Z" fill="#a93d31" stroke="#a93d31" stroke-width="1.51"/><path d="M-222,-124L-202,226L-69,-94Z" fill="#942716" stroke="#942716" stroke-width="1.51"/><path d="M-261,600L-184,754L-60,525Z" fill="#7c281e" stroke="#7c281e" stroke-width="1.51"/><path d="M-78,1207L-338,1312L-76,1409Z" fill="#9f5245" stroke="#9f5245" stroke-width="1.51"/><path d="M-217,-184L-222,-124L-69,-94Z" fill="#b81909" stroke="#b81909" stroke-width="1.51"/><path d="M-129,349L-180,357L-60,525Z" fill="#c21d14" stroke="#c21d14" stroke-width="1.51"/><path d="M-180,357L-261,600L-60,525Z" fill="#9d2419" stroke="#9d2419" stroke-width="1.51"/><path d="M-174,1090L-338,1312L-78,1207Z" fill="#94443b" stroke="#94443b" stroke-width="1.51"/><path d="M-202,226L-180,357L-129,349Z" fill="#932719" stroke="#932719" stroke-width="1.51"/><path d="M-294,902L-174,1090L-109,1036Z" fill="#8b2c24" stroke="#8b2c24" stroke-width="1.51"/><path d="M-294,902L-338,1312L-174,1090Z" fill="#76342e" stroke="#76342e" stroke-width="1.51"/><path d="M-202,226L-261,600L-180,357Z" fill="#9f2016" stroke="#9f2016" stroke-width="1.51"/><path d="M-261,600L-294,902L-184,754Z" fill="#60231d" stroke="#60231d" stroke-width="1.51"/><path d="M-222,-124L-261,600L-202,226Z" fill="#69271b" stroke="#69271b" stroke-width="1.51"/><path d="M-338,1312L-294,902L-222,-124Z" fill="#4e221d" stroke="#4e221d" stroke-width="1.51"/><path d="M-294,902L-261,600L-222,-124Z" fill="#872117" stroke="#872117" stroke-width="1.51"/></svg>